<svg width="41" height="41" viewBox="0 0 41 41" fill="none" xmlns="http://www.w3.org/2000/svg">
<g id="apple 1" clip-path="url(#clip0_65_555)">
<g id="Group">
<g id="Group_2">
<path id="Vector" d="M27.628 0.833496C25.4956 0.980995 23.0031 2.34599 21.5506 4.12348C20.2256 5.73597 19.1356 8.13095 19.5606 10.4584C21.8906 10.5309 24.2981 9.13345 25.6931 7.32596C26.998 5.64347 27.9855 3.26348 27.628 0.833496Z" fill="white"/>
</g>
</g>
<g id="Group_3">
<g id="Group_4">
<path id="Vector_2" d="M36.0557 14.2535C34.0083 11.686 31.1308 10.196 28.4133 10.196C24.8258 10.196 23.3083 11.9135 20.8158 11.9135C18.2458 11.9135 16.2934 10.201 13.1909 10.201C10.1434 10.201 6.89842 12.0635 4.84093 15.2485C1.94844 19.7335 2.44344 28.1659 7.13091 35.3484C8.8084 37.9184 11.0484 40.8084 13.9784 40.8334C16.5859 40.8584 17.3209 39.1609 20.8533 39.1434C24.3858 39.1234 25.0558 40.8559 27.6583 40.8284C30.5908 40.8059 32.9533 37.6034 34.6308 35.0334C35.8332 33.1909 36.2807 32.2634 37.2132 30.1834C30.4308 27.6009 29.3433 17.956 36.0557 14.2535Z" fill="white"/>
</g>
</g>
</g>
<defs>
<clipPath id="clip0_65_555">
<rect width="40" height="40" fill="white" transform="translate(0.129883 0.833496)"/>
</clipPath>
</defs>
</svg>
