<svg width="78" height="41" viewBox="0 0 78 41" fill="none" xmlns="http://www.w3.org/2000/svg">
<g id="Group 49">
<path id="Vector" d="M76.3451 7.09249C75.454 4.64512 72.843 2.71599 69.532 2.05696C63.4827 0.833496 39.2853 0.833496 39.2853 0.833496C39.2853 0.833496 15.0885 0.833496 9.03919 2.01033C5.79188 2.66891 3.11724 4.64555 2.22609 7.09249C0.634277 11.5627 0.634277 20.8335 0.634277 20.8335C0.634277 20.8335 0.634277 30.1509 2.22609 34.5745C3.11783 37.0214 5.72818 38.951 9.03978 39.61C15.1522 40.8335 39.2859 40.8335 39.2859 40.8335C39.2859 40.8335 63.4827 40.8335 69.532 39.6567C72.8436 38.9981 75.454 37.0685 76.3457 34.6216C77.9375 30.1509 77.9375 20.8806 77.9375 20.8806C77.9375 20.8806 78.0012 11.5627 76.3451 7.09249Z" fill="white"/>
<path id="Vector_2" d="M31.5811 29.3982L51.7025 20.8335L31.5811 12.2688V29.3982Z" fill="#FF0000"/>
</g>
</svg>
