<svg width="41" height="41" viewBox="0 0 41 41" fill="none" xmlns="http://www.w3.org/2000/svg">
<g id="instagram 1" clip-path="url(#clip0_65_551)">
<path id="Vector" d="M40.0903 12.5936C39.9966 10.4683 39.6529 9.00709 39.1606 7.74097C38.6527 6.39702 37.8713 5.19378 36.8475 4.19353C35.8472 3.1777 34.6361 2.38837 33.3077 1.88839C32.0342 1.39604 30.5807 1.05235 28.4553 0.958643C26.3141 0.856999 25.6344 0.833496 20.2036 0.833496C14.7729 0.833496 14.0931 0.856999 11.9598 0.950706C9.83446 1.04441 8.3733 1.38841 7.10749 1.88045C5.76323 2.38837 4.55999 3.16977 3.55974 4.19353C2.54392 5.19378 1.75488 6.40496 1.2546 7.73334C0.762256 9.00709 0.418561 10.4603 0.324854 12.5857C0.22321 14.7269 0.199707 15.4067 0.199707 20.8374C0.199707 26.2682 0.22321 26.9479 0.316917 29.0812C0.410625 31.2066 0.754625 32.6677 1.24697 33.9338C1.75488 35.2778 2.54392 36.481 3.55974 37.4813C4.55999 38.4971 5.77117 39.2864 7.09955 39.7864C8.3733 40.2788 9.82653 40.6225 11.9522 40.7162C14.0852 40.8102 14.7652 40.8334 20.196 40.8334C25.6267 40.8334 26.3065 40.8102 28.4398 40.7162C30.5651 40.6225 32.0263 40.2788 33.2921 39.7864C35.9803 38.7471 38.1057 36.6217 39.145 33.9338C39.637 32.6601 39.981 31.2066 40.0747 29.0812C40.1685 26.9479 40.192 26.2682 40.192 20.8374C40.192 15.4067 40.184 14.7269 40.0903 12.5936ZM36.4882 28.9249C36.4022 30.8784 36.074 31.9333 35.8005 32.6366C35.1284 34.3792 33.7454 35.7622 32.0028 36.4343C31.2995 36.7078 30.237 37.0359 28.2911 37.1217C26.1813 37.2157 25.5486 37.2389 20.2116 37.2389C14.8745 37.2389 14.2338 37.2157 12.1317 37.1217C10.1782 37.0359 9.12326 36.7078 8.42 36.4343C7.55283 36.1138 6.76349 35.6059 6.1228 34.9417C5.45861 34.2931 4.9507 33.5117 4.6302 32.6445C4.35671 31.9413 4.02858 30.8784 3.94281 28.9329C3.8488 26.8231 3.8256 26.19 3.8256 20.853C3.8256 15.5159 3.8488 14.8752 3.94281 12.7734C4.02858 10.8199 4.35671 9.76499 4.6302 9.06173C4.9507 8.19425 5.45861 7.40521 6.13074 6.76422C6.77906 6.10003 7.56046 5.59212 8.42794 5.27192C9.1312 4.99843 10.194 4.6703 12.1396 4.58423C14.2494 4.49052 14.8824 4.46702 20.2192 4.46702C25.5642 4.46702 26.1969 4.49052 28.2991 4.58423C30.2526 4.6703 31.3075 4.99843 32.0107 5.27192C32.8779 5.59212 33.6672 6.10003 34.3079 6.76422C34.9721 7.41284 35.48 8.19425 35.8005 9.06173C36.074 9.76499 36.4022 10.8275 36.4882 12.7734C36.5819 14.8832 36.6054 15.5159 36.6054 20.853C36.6054 26.19 36.5819 26.8151 36.4882 28.9249Z" fill="white"/>
<path id="Vector_2" d="M20.2037 10.562C14.5309 10.562 9.92822 15.1644 9.92822 20.8375C9.92822 26.5106 14.5309 31.1129 20.2037 31.1129C25.8768 31.1129 30.4791 26.5106 30.4791 20.8375C30.4791 15.1644 25.8768 10.562 20.2037 10.562ZM20.2037 27.5029C16.5234 27.5029 13.5382 24.518 13.5382 20.8375C13.5382 17.1569 16.5234 14.172 20.2037 14.172C23.8842 14.172 26.8691 17.1569 26.8691 20.8375C26.8691 24.518 23.8842 27.5029 20.2037 27.5029Z" fill="white"/>
<path id="Vector_3" d="M33.2843 10.1557C33.2843 11.4804 32.2102 12.5545 30.8852 12.5545C29.5605 12.5545 28.4863 11.4804 28.4863 10.1557C28.4863 8.83065 29.5605 7.75684 30.8852 7.75684C32.2102 7.75684 33.2843 8.83065 33.2843 10.1557Z" fill="white"/>
</g>
<defs>
<clipPath id="clip0_65_551">
<rect width="40" height="40" fill="white" transform="translate(0.129395 0.833496)"/>
</clipPath>
</defs>
</svg>
