<svg width="41" height="41" viewBox="0 0 41 41" fill="none" xmlns="http://www.w3.org/2000/svg">
<g id="linkedin 1">
<g id="_x31_0.Linkedin">
<path id="Vector" d="M36.1214 36.8336V36.8324H36.1294V25.0964C36.1294 19.3552 34.8934 14.9324 28.1814 14.9324C24.9546 14.9324 22.7894 16.7032 21.9054 18.3816H21.8122V15.4684H15.4482V36.8324H22.075V26.2536C22.075 23.4684 22.603 20.7748 26.0522 20.7748C29.451 20.7748 29.5014 23.9536 29.5014 26.432V36.8336H36.1214Z" fill="white"/>
<path id="Vector_2" d="M4.65723 15.4695H11.292V36.8335H4.65723V15.4695Z" fill="white"/>
<path id="Vector_3" d="M7.97219 4.8335C5.85059 4.8335 4.12939 6.5547 4.12939 8.6763C4.12939 10.7979 5.85059 12.5551 7.97219 12.5551C10.0938 12.5551 11.815 10.7979 11.815 8.6763C11.8134 6.5547 10.0922 4.8335 7.97219 4.8335Z" fill="white"/>
</g>
</g>
</svg>
