<svg width="25" height="24" viewBox="0 0 25 24" fill="none" xmlns="http://www.w3.org/2000/svg">
<g id="tik-tok 1">
<g id="Group">
<g id="Group_2">
<path id="Vector" d="M9.45194 12.4406C7.54882 12.4406 6.01132 13.9781 6.03944 15.8625C6.05819 17.0719 6.72382 18.1219 7.7035 18.7078C7.37069 18.1969 7.17382 17.5922 7.16444 16.9406C7.13632 15.0562 8.67382 13.5187 10.5769 13.5187C10.9519 13.5187 11.3129 13.5797 11.6504 13.6875V9.91404C11.2988 9.86248 10.9379 9.83435 10.5769 9.83435C10.5582 9.83435 10.5441 9.83435 10.5254 9.83435V12.6094C10.1879 12.5015 9.82694 12.4406 9.45194 12.4406Z" fill="#F00044"/>
<path id="Vector_2" d="M17.6784 1.125H17.6503H16.6753C16.9565 2.53594 17.7487 3.76406 18.855 4.59844C18.1284 3.6375 17.6878 2.4375 17.6784 1.125Z" fill="#F00044"/>
<path id="Vector_3" d="M23.4161 6.86716C23.0458 6.86716 22.6896 6.82966 22.338 6.76404V9.46873C21.063 9.46873 19.8255 9.22029 18.663 8.72341C17.913 8.40466 17.2146 7.99685 16.5724 7.50466L16.5911 15.8437C16.5817 17.7187 15.8411 19.4765 14.5005 20.8031C13.4083 21.8812 12.0255 22.5703 10.5255 22.7906C10.1739 22.8422 9.81299 22.8703 9.45205 22.8703C7.84893 22.8703 6.3208 22.35 5.07861 21.389C5.21924 21.5578 5.36924 21.7219 5.5333 21.8812C6.8833 23.2125 8.67393 23.9484 10.5817 23.9484C10.9427 23.9484 11.3036 23.9203 11.6552 23.8687C13.1552 23.6484 14.538 22.9594 15.6302 21.8812C16.9708 20.5547 17.7114 18.7969 17.7208 16.9219L17.6505 8.58279C18.288 9.07498 18.9864 9.48748 19.7411 9.80154C20.9083 10.2937 22.1458 10.5469 23.4161 10.5469" fill="#F00044"/>
</g>
<path id="Vector_4" d="M5.51926 11.9109C6.8552 10.5844 8.63176 9.84841 10.5255 9.83435V8.83591C10.1739 8.78435 9.81301 8.75623 9.45207 8.75623C7.53957 8.75623 5.74426 9.49216 4.39426 10.8328C3.0677 12.15 2.30832 13.95 2.31301 15.8203C2.31301 17.7047 3.05832 19.4718 4.40364 20.8078C4.61926 21.0187 4.83957 21.2156 5.07395 21.3937C4.01457 20.1328 3.43801 18.5578 3.43332 16.8984C3.43801 15.0281 4.1927 13.2281 5.51926 11.9109Z" fill="#08FFF9"/>
<path id="Vector_5" d="M22.338 6.76401V5.76089H22.3286C21.0255 5.76089 19.8255 5.32964 18.8599 4.59839C19.6989 5.70464 20.9271 6.49214 22.338 6.76401Z" fill="#08FFF9"/>
<path id="Vector_6" d="M10.3849 20.2594C10.8302 20.2828 11.2567 20.2219 11.6505 20.0953C13.0099 19.65 13.9896 18.3844 13.9896 16.8937L13.9942 11.3156V1.125H16.6755C16.6052 0.773438 16.5677 0.417188 16.563 0.046875H12.8692V10.2328L12.8646 15.8109C12.8646 17.3016 11.8849 18.5672 10.5255 19.0125C10.1317 19.1438 9.70518 19.2047 9.25986 19.1766C8.69268 19.1438 8.16299 18.975 7.70361 18.7031C8.28018 19.5938 9.26455 20.1984 10.3849 20.2594Z" fill="#08FFF9"/>
<path id="Vector_7" d="M10.5255 22.7906C12.0255 22.5703 13.4083 21.8812 14.5005 20.8031C15.8411 19.4766 16.5818 17.7188 16.5911 15.8438L16.5724 7.50469C17.2099 7.99688 17.9083 8.40938 18.663 8.72344C19.8302 9.21563 21.0677 9.46875 22.338 9.46875V6.76406C20.9271 6.49219 19.6989 5.70469 18.8599 4.59844C17.7536 3.76406 16.9568 2.53594 16.6802 1.125H13.9943V11.3109L13.9896 16.8891C13.9896 18.3797 13.0099 19.6453 11.6505 20.0906C11.2568 20.2219 10.8302 20.2828 10.3849 20.2547C9.25988 20.1938 8.2802 19.5891 7.70364 18.7031C6.72395 18.1219 6.05832 17.0672 6.03957 15.8578C6.01145 13.9734 7.54895 12.4359 9.45207 12.4359C9.82707 12.4359 10.188 12.4969 10.5255 12.6047V9.82969C8.63176 9.84375 6.8552 10.5797 5.51926 11.9062C4.1927 13.2234 3.43332 15.0234 3.43801 16.8891C3.43801 18.5484 4.01457 20.1234 5.07864 21.3844C6.32551 22.3453 7.84895 22.8656 9.45207 22.8656C9.81301 22.8703 10.1739 22.8422 10.5255 22.7906Z" fill="black"/>
</g>
</g>
</svg>
